<svg width="46" height="46" viewBox="0 0 46 46" fill="none" xmlns="http://www.w3.org/2000/svg">
<g clip-path="url(#clip0_608_3)">
<path d="M20.4 41.3C17.6 41.3 15.0833 40.7833 12.85 39.75C10.6167 38.7167 8.83333 37.2 7.5 35.2C6.2 33.1667 5.55 30.7167 5.55 27.85C5.55 25.85 5.9 23.6833 6.6 21.35C8.13333 16.35 10.45 12.75 13.55 10.55C16.65 8.31666 19.9667 7.2 23.5 7.2C25.4 7.2 27.0833 7.48333 28.55 8.05C30.0167 8.61667 31.3667 9.43333 32.6 10.5L33.95 9.45C34.85 8.75 35.6 8.26667 36.2 8C36.8333 7.73333 37.5333 7.6 38.3 7.6C39.1333 7.6 39.8 7.78333 40.3 8.15C40.8 8.51667 41.05 9.05 41.05 9.75C41.05 10.1167 40.9833 10.4833 40.85 10.85L38.05 18.65C37.75 19.55 37.3833 20.1833 36.95 20.55C36.55 20.9167 35.9333 21.1 35.1 21.1C34.2333 21.1 33.5167 20.8 32.95 20.2C32.4167 19.5667 31.8 18.5 31.1 17C30.3 15.4333 29.65 14.4 29.15 13.9C28.65 13.4 27.9167 13.15 26.95 13.15C25.5833 13.15 24.2667 14 23 15.7C21.7333 17.3667 20.5833 19.8833 19.55 23.25C18.6833 26.0833 18.25 28.45 18.25 30.35C18.25 32.0167 18.5667 33.2667 19.2 34.1C19.8333 34.9 20.6833 35.3 21.75 35.3C23.3167 35.3 24.6 34.95 25.6 34.25C26.6333 33.55 27.6833 32.6 28.75 31.4C29.4167 30.6667 29.95 30.1333 30.35 29.8C30.7833 29.4333 31.2333 29.25 31.7 29.25C32.3 29.25 32.9333 29.55 33.6 30.15C34.2667 30.75 34.5833 31.35 34.55 31.95C34.5833 32.6833 33.9833 33.8167 32.75 35.35C31.55 36.8833 29.8667 38.2667 27.7 39.5C25.5667 40.7 23.1333 41.3 20.4 41.3Z" fill="#FF0000"/>
</g>
<defs>
<clipPath id="clip0_608_3">
<rect width="46" height="46" fill="white"/>
</clipPath>
</defs>
</svg>
